<?xml version="1.0" encoding="utf-8"?>
<svg xmlns="http://www.w3.org/2000/svg"
     xmlns:xlink="http://www.w3.org/1999/xlink"
     viewBox="0 8 366 56"
     font-family="Nimbus Sans, Arial, Helvetica, sans-serif"
     font-weight="bold"
     text-anchor="middle">
  
  <title>Downtown Line logo</title>

  <defs>
    <g id="car">
      <path d="M 0 -6 L -8 -6 L -9 0 L -16 0 L -12 -6 C -17 -6 -18 -7 -18.5 -14 C -18.5 -19 -16 -30 -14 -35
            C -11 -40 -8 -41 0 -41
            C 8 -41 11 -40 14 -35 C 16 -30 18.5 -19 18.5 -14 C 18 -7 17 -6 12 -6 L 16 0 L 9 0 L 8 -6 L 0 -6 Z
            M 0 -15   C -20 -15 -14 -15 -14 -25   C -12 -30 -15 -38 0 -38   C 15 -38 12 -30 14 -25   C 14 -15 20 -15 0 -15 Z
            M -11 -11 A 2 2 0 0 0 -7 -11 A 2 2 0 0 0 -11 -11 Z
            M 11 -11 A 2 2 0 0 0 7 -11 A 2 2 0 0 0 11 -11 Z"
            stroke-width="0.3" stroke="none" fill-rule="evenodd"/>
    </g>
  </defs>

  <rect x="0" y="8" width="366" height="56" fill="#005ec4"/>
  <use x="25.5" y="56" xlink:href="#car" opacity="1.0" fill="white"></use>
  <text x="205" y="46" font-size="34" fill="white">Downtown Line</text>

</svg>


<?xml version="1.0" encoding="utf-8"?>
<svg xmlns="http://www.w3.org/2000/svg"
     xmlns:xlink="http://www.w3.org/1999/xlink"
     viewBox="0 8 366 56"
     font-family="Nimbus Sans, Arial, Helvetica, sans-serif"
     font-weight="bold"
     text-anchor="middle">
  
  <title>Downtown Line logo</title>

  <defs>
    <g id="car">
      <path d="M 0 -6 L -8 -6 L -9 0 L -16 0 L -12 -6 C -17 -6 -18 -7 -18.5 -14 C -18.5 -19 -16 -30 -14 -35
            C -11 -40 -8 -41 0 -41
            C 8 -41 11 -40 14 -35 C 16 -30 18.5 -19 18.5 -14 C 18 -7 17 -6 12 -6 L 16 0 L 9 0 L 8 -6 L 0 -6 Z
            M 0 -15   C -20 -15 -14 -15 -14 -25   C -12 -30 -15 -38 0 -38   C 15 -38 12 -30 14 -25   C 14 -15 20 -15 0 -15 Z
            M -11 -11 A 2 2 0 0 0 -7 -11 A 2 2 0 0 0 -11 -11 Z
            M 11 -11 A 2 2 0 0 0 7 -11 A 2 2 0 0 0 11 -11 Z"
            stroke-width="0.3" stroke="none" fill-rule="evenodd"/>
    </g>
  </defs>

  <rect x="0" y="8" width="366" height="56" fill="#005ec4"/>
  <use x="25.5" y="56" xlink:href="#car" opacity="1.0" fill="white"></use>
  <text x="205" y="46" font-size="34" fill="white">Downtown Line</text>

</svg>

